<?xml version="1.0" encoding="utf-8"?>
<!-- Generator: Adobe Illustrator 27.5.0, SVG Export Plug-In . SVG Version: 6.00 Build 0)  -->
<svg version="1.1" xmlns="http://www.w3.org/2000/svg" xmlns:xlink="http://www.w3.org/1999/xlink" x="0px" y="0px"
	 viewBox="0 0 750 500" style="enable-background:new 0 0 750 500;" xml:space="preserve">
<g id="BACKGROUND">
	<path style="fill:#F9D6CF;" d="M408.449,421.938c0,0-346.483,40.043-361.482-150.506C31.968,80.883,172.961,69.837,300.454,75.36
		c127.494,5.523,251.987-96.655,367.482-6.904S726.433,401.226,408.449,421.938z"/>
</g>
<g id="OBJECTS">
	<g>
		<g>
			<g>
				<rect x="308.453" y="41.384" style="fill:#003154;" width="277.486" height="216.671"/>
				<rect x="317.025" y="49.626" style="fill:#FFFFFF;" width="263.021" height="198.92"/>
			</g>
			<g>
				<rect x="364.228" y="39.209" style="fill:#00344E;" width="170.587" height="12.465"/>
				<rect x="419.004" y="34.749" style="fill:#00344E;" width="61.036" height="9.763"/>
			</g>
		</g>
		<g>
			<g>
				<g>
					<rect x="352.488" y="115.464" style="fill:#22689E;" width="30.011" height="110.81"/>
					<rect x="406.738" y="73.91" style="fill:#FF8255;" width="30.011" height="152.364"/>
					<rect x="460.989" y="175.486" style="fill:#FFA94D;" width="30.011" height="50.788"/>
				</g>
				
					<line style="fill:none;stroke:#00344E;stroke-width:1.7314;stroke-miterlimit:10;" x1="338.925" y1="226.852" x2="505.944" y2="226.852"/>
			</g>
			<g>
				<circle style="fill:#FF8255;" cx="508.11" cy="100.805" r="29.25"/>
				<path style="fill:#FFA94D;" d="M502.828,129.57c1.714,0.313,3.478,0.485,5.282,0.485c16.154,0,29.25-13.096,29.25-29.25
					c0-6.947-2.426-13.324-6.471-18.341l-27.529,22.091L502.828,129.57z"/>
				<path style="fill:#22689E;" d="M507.36,71.574c-15.807,0.399-28.5,13.328-28.5,29.231s12.693,28.832,28.5,29.231V71.574z"/>
			</g>
		</g>
	</g>
	<g>
		<ellipse style="fill:#F9D6CF;" cx="275.36" cy="464.055" rx="216" ry="15"/>
		<g>
			<g>
				<g>
					<polygon style="fill:#003154;" points="198.748,344.726 198.03,344.672 198.03,338.98 159.962,341.826 121.894,338.98 
						131.422,343.96 121.176,344.726 109.684,453.901 113.994,453.901 131.95,363.401 165.957,363.401 183.412,462.76 
						179.641,370.457 190.91,367.237 205.931,453.901 210.24,453.901 					"/>
					<polygon style="fill:#22689E;" points="183.665,463.957 172.173,354.782 171.454,354.728 171.454,349.036 125.215,351.271 
						95.319,349.036 95.319,352.716 94.671,352.747 83.108,463.957 87.418,463.957 105.374,373.456 163.157,373.456 
						179.355,463.957 					"/>
				</g>
				<g>
					<path style="fill:#FF8255;" d="M87.418,343.289L64.434,239.86c0,0-5.028-20.83,12.21-22.984
						c17.238-2.155,25.857,1.436,30.167,20.829c4.31,19.393,20.83,101.275,20.83,101.275l68.953-0.718c0,0,5.746,0.718,5.746,6.464
						c0,5.746-31.604,10.774-31.604,10.774H97.474C97.474,355.5,90.915,354.536,87.418,343.289z"/>
					<path style="fill:#FF5E43;" d="M196.593,338.262l-68.953,0.718c0,0-16.52-81.882-20.83-101.275
						c-4.209-18.94-12.551-22.792-28.996-20.955c-10.393,5.325-6.58,20.494-6.58,20.494l23.103,99.662
						c5.054,13.15,11.066,11.725,11.066,11.725l60.82,0.716c0,0,21.108-0.716,32.239-10.532
						C197.43,338.369,196.593,338.262,196.593,338.262z"/>
				</g>
			</g>
			<g>
				<g>
					<g>
						<path style="fill:#000B1C;" d="M226.379,459.404c0,0-0.073,0.058-0.201,0.148l-6.961-18.617c0,0,1.286-10.971,3.009-24.925
							c-5.625-1.532-11.247-3.076-16.866-4.63c0.916,12.427,1.466,24.434,1.596,27.419c-0.662,0.442-4.502,3.257-4.271,8.87
							c0.253,6.14,1.082,14.964,1.082,14.964l1.07,0.31l2.353-10.395c0,0,3.986,10.615,5.999,11.807
							c2.013,1.191,17.245,7.213,19.508,3.804C234.96,464.753,226.379,459.404,226.379,459.404z M210.723,446.951l3.073,6.108
							C212.734,451.104,211.677,448.973,210.723,446.951z"/>
						<path style="fill:#000B1C;" d="M267.765,449.931c0,0-0.064,0.067-0.178,0.175l-9.537-17.438c0,0-0.287-11.043-0.565-25.099
							c-5.786-0.717-11.57-1.445-17.353-2.185c2.673,12.171,4.925,23.977,5.478,26.914c-0.592,0.532-3.994,3.864-2.966,9.388
							c1.123,6.042,3.198,14.658,3.198,14.658l1.103,0.155l0.852-10.624c0,0,5.454,9.941,7.617,10.834
							c2.162,0.893,18.095,4.688,19.85,0.992C277.02,454.006,267.765,449.931,267.765,449.931z M250.497,439.831l3.91,5.609
							C253.078,443.655,251.729,441.697,250.497,439.831z"/>
					</g>
					<g>
						<path style="fill:#000B1C;" d="M160.158,299.783c-7.811-34.314,21.406-37.866,30.129-27.897
							c7.811,8.927,0.807,27.62,2.52,27.708c26.725,1.36,63.701,5.472,68.618,17.765c7.811,19.528,13.391,108.98,13.391,108.98
							s-22.318,7.811-38.498,4.464l-16.18-88.336l-80.902-18.412L160.158,299.783z"/>
						<path style="fill:#001433;" d="M145.373,271.607c0,0-51.052,56.074-17.575,74.486c33.477,18.412,84.529,5.022,84.529,5.022
							s-19.249,50.954-21.76,83.594c0,0,30.966,8.369,47.704,5.022c0,0,18.412-116.234,10.88-122.929
							c-7.532-6.695-85.366-12.554-85.366-12.554l5.021-31.245L145.373,271.607z"/>
					</g>
				</g>
				<g>
					<path style="fill:#000B1C;" d="M161.841,169.653c0,0-18.593-2.374-17.934,7.648c0.659,10.022,12.527,5.011,12.527,5.011
						s-15.692,0.659-15.956,11.341s16.879,6.198,20.571-2.11c3.692-8.308-29.802,5.67-9.89,26.11
						c19.912,20.44,40.483-6.725,38.242-22.813C187.16,178.752,161.841,169.653,161.841,169.653z"/>
					<path style="fill:#000B1C;" d="M209.479,166.488c0,0,18.593-2.374,17.934,7.648c-0.659,10.022-12.527,5.011-12.527,5.011
						s15.692,0.659,15.956,11.341c0.264,10.681-16.879,6.198-20.571-2.11c-3.692-8.308,29.802,5.67,9.89,26.11
						c-19.912,20.439-40.484-6.725-38.242-22.813C184.16,175.587,209.479,166.488,209.479,166.488z"/>
				</g>
				<g>
					<path style="fill:#AA3721;" d="M213.186,211.417c0,0-11.152-6.649-16.607,11.225c-5.454,17.874-6.884,49.972,0.283,53.575
						c7.168,3.603,54.426-3.402,54.426-3.402s8.901,22.232,2.1-1.904c0,0,14.185,20.886,3.052-0.853c0,0,14.054,19.475,2.383-1.93
						c0,0,15.918,15.031-0.571-3.078c0,0-2.776-1.847-14.401-1.792c-9.675,0.046-28.507-2.961-28.507-2.961
						S228.014,220.855,213.186,211.417z"/>
					<g>
						<path style="fill:#AA3721;" d="M175.556,186.796c0,0,5.538,17.802,0,28.483c0,0,19.78,1.582,19.385,0.396
							s2.374-24.132,2.374-24.132L175.556,186.796z"/>
						<g>
							<path style="fill:#FFA94D;" d="M138.753,270.83c0,0,39.402,10.488,56.41,9.354c0,0,20.693-14.457,18.709-32.599
								c-1.984-18.142-5.669-37.134-5.669-37.134l-9.071-1.417l0.85-4.252l-23.811-3.402l-1.417,5.386c0,0-21.827-0.85-24.095,8.504
								C148.391,224.625,138.753,270.83,138.753,270.83z"/>
							<path style="fill:#FF8A3B;" d="M210.816,260.649c-10.492-1.643-22.097-4.039-31.155-9.853
								c-12.709-8.158-23.386-25.31-23.303-41.27c-2.843,1.263-5.058,3.094-5.701,5.745c-2.268,9.354-11.906,55.559-11.906,55.559
								s39.402,10.488,56.41,9.354c0,0,11.35-7.938,16.43-19.428C211.334,260.72,211.075,260.69,210.816,260.649z"/>
						</g>
					</g>
					<path style="fill:#BF4322;" d="M165.398,209.885c0,0-10.488-7.654-17.575,9.638c-7.087,17.291-18.425,56.977-11.622,61.229
						c6.803,4.252,67.182-0.567,67.182-0.567s6.803,22.961,2.268-1.701c0,0,12.189,22.11,3.118-0.567c0,0,12.189,20.693,2.551-1.701
						c0,0,14.457,16.441-0.284-3.118c0,0-2.593-2.096-14.173-3.118c-9.638-0.85-39.685-2.835-39.685-2.835
						S179.288,220.657,165.398,209.885z"/>
				</g>
				<g>
					<g>
						<g>
							<path style="fill:#BF4322;" d="M198.105,139.323c0,0-24.725-10.088-31.055,16.022c-6.33,26.11,15.938,50.331,37.121,44.637
								C220.852,195.499,219.468,143.279,198.105,139.323z"/>
							<path style="fill:#BF4322;" d="M169.728,172.951c0,0-6.831-7.969-9.596,0.163c-2.765,8.132,7.481,15.938,11.547,12.035
								C175.745,181.246,169.728,172.951,169.728,172.951z"/>
						</g>
						<path style="fill:#000B1C;" d="M161.446,170.84c0,0,3.956-3.692,6.066,2.374c2.11,6.066,7.121,3.692,3.165-4.352
							c0,0,11.209-4.747,5.407-18.857c0,0,33.494,5.802,35.868-10.286c2.374-16.088-11.209-24.791-16.22-11.209
							c0,0,3.824-11.341-3.956-10.418c-7.78,0.923-3.56,9.89-3.56,9.89s-5.407-9.363-8.967-6.725
							c-3.561,2.637,3.824,7.121,3.824,7.121s-17.934-5.143-20.571,10.022c0,0-11.604,3.956-12.791,15.956
							S161.446,170.84,161.446,170.84z"/>
					</g>
					<g>
						<path style="fill:#FFFFFF;" d="M191.626,188.037l18.284-3.536C209.91,184.5,204.127,195.051,191.626,188.037z"/>
						<g>
							<path style="fill:#7F2519;" d="M169.226,184.29c-0.429,0.055-0.866,0.076-1.308,0.036c-0.222-0.019-0.446-0.046-0.67-0.112
								c-0.224-0.061-0.456-0.133-0.682-0.293c-0.117-0.063-0.223-0.168-0.32-0.293c-0.111-0.107-0.153-0.28-0.209-0.438
								c-0.05-0.16-0.019-0.318-0.017-0.481c0.016-0.157,0.077-0.273,0.119-0.413c0.096-0.271,0.245-0.452,0.38-0.675l0.465-0.535
								l-0.192,0.435c-0.121-1.363-0.286-2.752-0.529-4.085c-0.12-0.667-0.283-1.323-0.474-1.944
								c-0.188-0.619-0.443-1.214-0.777-1.622c-0.158-0.212-0.332-0.349-0.508-0.425c-0.09-0.036-0.181-0.065-0.288-0.066
								l-0.078-0.008c0.16-0.023,0.042-0.006,0.077-0.011l-0.004,0.001l-0.008,0.001l-0.016,0.003l-0.033,0.005l-0.066,0.01
								l-0.262,0.04c-0.224,0.017-0.221,0.076-0.319,0.093c-0.09,0-0.161,0.117-0.259,0.161c-0.076,0.082-0.146,0.177-0.217,0.281
								c-0.045,0.128-0.121,0.234-0.155,0.382c-0.18,0.563-0.177,1.253-0.138,1.934c0.058,0.684,0.148,1.386,0.29,2.087
								c-0.377-0.611-0.684-1.269-0.903-1.967c-0.223-0.699-0.37-1.441-0.282-2.268c0.047-0.412,0.207-0.849,0.495-1.238
								c0.18-0.168,0.311-0.375,0.562-0.494c0.224-0.124,0.525-0.276,0.661-0.286l0.258-0.061l0.064-0.015l0.032-0.008l0.016-0.004
								l0.097-0.015l0.186-0.007c0.245-0.015,0.508,0.026,0.75,0.099c0.493,0.152,0.901,0.46,1.194,0.788
								c0.577,0.678,0.879,1.41,1.126,2.128c0.248,0.721,0.374,1.451,0.493,2.173c0.121,0.722,0.17,1.447,0.203,2.168
								c0.037,0.724,0.031,1.436-0.013,2.172l-0.017,0.281l-0.176,0.154l-0.429,0.376c-0.101,0.128-0.262,0.26-0.326,0.383
								c-0.028,0.059-0.091,0.129-0.103,0.181c0.001,0.046-0.046,0.107-0.035,0.15c0.018,0.04-0.016,0.096,0.031,0.144
								c0.024,0.051,0.046,0.116,0.112,0.17c0.215,0.241,0.602,0.416,0.981,0.569C168.395,184.072,168.805,184.195,169.226,184.29z"
								/>
						</g>
						<g>
							<path style="fill:#7F2519;" d="M200.215,165.565c0.307,1.258,0.641,2.485,0.995,3.693c0.184,0.602,0.363,1.201,0.572,1.788
								c0.209,0.587,0.411,1.171,0.655,1.738c0.106,0.29,0.257,0.557,0.372,0.841c0.12,0.282,0.245,0.56,0.395,0.823
								c0.269,0.547,0.596,1.049,0.907,1.562c0.158,0.255,0.354,0.476,0.528,0.718c0.167,0.249,0.376,0.456,0.575,0.671
								c0.205,0.208,0.38,0.458,0.617,0.627l0.676,0.563l0.863,0.719l-0.902,0.423c-1.82,0.854-3.657,1.679-5.595,2.318
								c1.578-1.295,3.258-2.404,4.954-3.484l-0.039,1.142l-0.852-0.59c-0.299-0.184-0.524-0.444-0.785-0.671
								c-0.261-0.228-0.498-0.478-0.702-0.75c-0.208-0.269-0.441-0.525-0.628-0.807l-0.547-0.854
								c-0.172-0.29-0.306-0.597-0.459-0.895c-0.157-0.297-0.286-0.604-0.408-0.913c-0.124-0.308-0.257-0.614-0.345-0.933
								c-0.202-0.63-0.391-1.26-0.521-1.904c-0.075-0.319-0.118-0.645-0.179-0.965c-0.063-0.32-0.102-0.645-0.134-0.969
								C200.089,168.161,200.051,166.855,200.215,165.565z"/>
						</g>
						<g>
							<path style="fill:#000B1C;" d="M200.874,163.455c0,0,0.07-1.045,0.831-2.386c0.379-0.668,0.929-1.405,1.703-2.052
								c0.177-0.18,0.41-0.303,0.623-0.455c0.221-0.143,0.433-0.308,0.69-0.406c0.249-0.111,0.499-0.231,0.757-0.333
								c0.26-0.097,0.541-0.145,0.813-0.216c0.546-0.155,1.117-0.128,1.667-0.134c0.548,0.021,1.069,0.175,1.567,0.278
								c0.474,0.178,0.913,0.387,1.321,0.581c0.395,0.216,0.716,0.5,1.023,0.729c0.151,0.119,0.298,0.226,0.428,0.34
								c0.124,0.122,0.229,0.254,0.333,0.368c0.208,0.228,0.371,0.445,0.506,0.618c0.269,0.349,0.397,0.564,0.397,0.564
								s-0.26-0.055-0.673-0.18c-0.205-0.064-0.455-0.135-0.721-0.237c-0.264-0.11-0.579-0.186-0.91-0.268
								c-0.334-0.075-0.677-0.195-1.04-0.27c-0.369-0.049-0.744-0.119-1.122-0.189c-0.383,0.01-0.768-0.047-1.15-0.031
								c-0.378,0.063-0.769,0.023-1.137,0.153c-0.186,0.046-0.38,0.062-0.563,0.126c-0.18,0.075-0.365,0.131-0.549,0.195
								c-0.364,0.135-0.716,0.316-1.063,0.49c-0.336,0.199-0.679,0.378-0.983,0.599c-0.321,0.197-0.607,0.421-0.89,0.615
								c-0.534,0.42-1.01,0.787-1.333,1.064C201.066,163.296,200.874,163.455,200.874,163.455z"/>
						</g>
						<g>
							<path style="fill:#000B1C;" d="M197.034,162.878c0,0-0.268-0.094-0.737-0.259c-0.45-0.158-1.094-0.383-1.866-0.652
								c-0.379-0.128-0.795-0.241-1.218-0.379c-0.434-0.104-0.872-0.263-1.335-0.344c-0.228-0.051-0.459-0.103-0.693-0.155
								c-0.235-0.028-0.47-0.059-0.704-0.099c-0.235-0.054-0.47-0.051-0.703-0.061c-0.232-0.007-0.469-0.038-0.699-0.03
								c-0.447,0.06-0.921,0.02-1.338,0.161c-0.213,0.055-0.431,0.092-0.646,0.138c-0.198,0.088-0.395,0.176-0.597,0.25
								c-0.422,0.118-0.759,0.389-1.122,0.594c-0.381,0.183-0.675,0.469-0.975,0.709c-0.281,0.257-0.615,0.445-0.817,0.699
								c-0.217,0.239-0.431,0.44-0.605,0.611c-0.351,0.34-0.582,0.533-0.582,0.533s0.042-0.279,0.171-0.765
								c0.066-0.242,0.142-0.543,0.258-0.88c0.083-0.355,0.311-0.688,0.531-1.075c0.228-0.384,0.453-0.829,0.851-1.186
								c0.374-0.373,0.748-0.813,1.284-1.09c0.252-0.16,0.518-0.312,0.787-0.465c0.285-0.115,0.585-0.209,0.888-0.303
								c0.6-0.242,1.243-0.227,1.875-0.303c0.619,0.038,1.259,0.042,1.836,0.2c0.589,0.124,1.149,0.296,1.656,0.525
								c0.526,0.191,0.976,0.478,1.416,0.717c0.423,0.268,0.805,0.543,1.141,0.814c0.674,0.54,1.165,1.064,1.48,1.456
								C196.891,162.625,197.034,162.878,197.034,162.878z"/>
						</g>
						<path style="fill:#000B1C;" d="M211.48,167.148c0.226,1.797-0.212,3.333-0.979,3.429s-1.573-1.282-1.799-3.079
							c-0.226-1.797,0.212-3.333,0.979-3.429C210.448,163.972,211.253,165.35,211.48,167.148z"/>
						<path style="fill:#000B1C;" d="M193.714,169.541c0.226,1.797-0.212,3.333-0.979,3.429c-0.767,0.097-1.573-1.282-1.799-3.079
							c-0.226-1.797,0.212-3.333,0.979-3.429S193.488,167.744,193.714,169.541z"/>
					</g>
				</g>
			</g>
			<g>
				<g>
					<polygon style="fill:#000B1C;" points="320.849,293.366 264.681,293.366 280.845,236.389 337.013,236.389 					"/>
					<rect x="211.745" y="288.517" style="fill:#000B1C;" width="71.12" height="4.849"/>
					<polygon style="fill:#001433;" points="326.103,293.366 269.934,293.366 286.098,236.389 342.266,236.389 					"/>
				</g>
				<g>
					<g>
						<g>
							<rect x="187.083" y="302.295" style="fill:#22689E;" width="9.78" height="160.726"/>
							<rect x="187.083" y="302.295" style="fill:#003154;" width="9.78" height="16.668"/>
						</g>
						<g>
							<rect x="430.722" y="302.295" style="fill:#22689E;" width="9.78" height="160.726"/>
							<rect x="430.722" y="302.295" style="fill:#003154;" width="9.78" height="16.668"/>
						</g>
					</g>
					<rect x="151.367" y="293.366" style="fill:#22689E;" width="334.632" height="11.48"/>
				</g>
			</g>
		</g>
	</g>
	<g>
		<ellipse style="fill:#F9D6CF;" cx="609.693" cy="464.055" rx="101.333" ry="15"/>
		<g>
			<g>
				<g>
					<path style="fill:#000B1C;" d="M604.315,61.995c0,0-35.526-11.729-37.895,17.225c-3.445,42.106-25.264,51.676,9.57,62.393
						c34.833,10.718,43.254-22.967,43.254-22.967L604.315,61.995z"/>
					<g>
						<g>
							<path style="fill:#FFB199;" d="M590.81,118.195c0,0,3.621,19.001,1.574,19.41c-2.048,0.41-13.449-0.164-13.449-0.164
								s18.837,28.256,18.428,26.618s21.294-27.846,21.294-27.846l-3.276-1.638l0.409-22.523L590.81,118.195z"/>
							<path style="fill:#FF8F7D;" d="M592.957,137.361c7.72-0.185,19.359-5.729,22.52-14.025l0.313-11.283l-24.98,6.143
								C590.81,118.195,593.446,133.448,592.957,137.361z"/>
						</g>
						<path style="fill:#FFB199;" d="M600.87,71.182c0,0-28.546-2.657-22.991,35.55c6.066,41.721,44.07,21.627,44.811-5.407
							C623.43,74.292,613.091,72.624,600.87,71.182z"/>
					</g>
				</g>
				<g>
					<g>
						<path style="fill:#FF6861;" d="M593.173,96.803c0.298,1.151,0.386,2.345,0.351,3.534c0.002,0.598-0.08,1.191-0.158,1.787
							c-0.068,0.6-0.232,1.182-0.377,1.772c-0.174,0.584-0.362,1.167-0.635,1.723c-0.237,0.568-0.554,1.112-0.888,1.638
							l-0.576,0.749c-0.18,0.258-0.422,0.471-0.64,0.701c-0.23,0.219-0.451,0.446-0.72,0.622l-0.774,0.555l-0.169-1.417
							c0.448,0.197,0.884,0.424,1.326,0.634c0.444,0.207,0.875,0.446,1.311,0.675c0.867,0.466,1.726,0.955,2.553,1.528
							c-0.998-0.122-1.965-0.328-2.923-0.556c-0.477-0.119-0.958-0.227-1.427-0.367c-0.47-0.137-0.947-0.257-1.412-0.408
							l-1.28-0.414l1.11-1.003l0.58-0.524c0.204-0.159,0.361-0.373,0.531-0.569c0.171-0.196,0.365-0.368,0.505-0.594l0.458-0.639
							c0.13-0.231,0.259-0.463,0.402-0.686c0.15-0.219,0.254-0.469,0.377-0.707c0.12-0.24,0.245-0.478,0.337-0.735l0.322-0.751
							c0.198-0.512,0.366-1.035,0.543-1.564c0.178-0.528,0.318-1.071,0.471-1.617C592.654,99.076,592.925,97.96,593.173,96.803z"/>
					</g>
					<g>
						<path style="fill:#000B1C;" d="M590.982,94.297c0,0-0.18-0.143-0.496-0.394c-0.306-0.244-0.743-0.575-1.255-0.918
							c-0.256-0.172-0.527-0.35-0.821-0.506c-0.277-0.185-0.603-0.294-0.902-0.448c-0.322-0.101-0.629-0.241-0.96-0.29
							c-0.318-0.105-0.657-0.088-0.985-0.135c-0.336,0.018-0.674,0.011-1.018,0.064c-0.338,0.101-0.694,0.08-1.03,0.219
							c-0.335,0.12-0.683,0.187-1.006,0.308c-0.318,0.135-0.63,0.256-0.928,0.362c-0.606,0.201-1.082,0.473-1.467,0.595
							c-0.373,0.142-0.611,0.208-0.611,0.208s0.093-0.215,0.3-0.563c0.104-0.173,0.229-0.39,0.394-0.619
							c0.16-0.236,0.336-0.51,0.594-0.747c0.247-0.249,0.525-0.515,0.831-0.788c0.318-0.258,0.71-0.473,1.106-0.708
							c0.192-0.13,0.414-0.216,0.65-0.291c0.231-0.084,0.468-0.161,0.71-0.233c0.485-0.137,1.03-0.156,1.552-0.179
							c0.531,0.067,1.073,0.092,1.559,0.302c0.509,0.144,0.939,0.418,1.349,0.672c0.376,0.294,0.743,0.576,1.007,0.908
							c0.287,0.313,0.508,0.64,0.691,0.95C590.967,93.32,590.982,94.297,590.982,94.297z"/>
					</g>
					<g>
						<path style="fill:#000B1C;" d="M597.105,93.111c0,0,0.422-1.001,1.638-2.035c0.303-0.257,0.643-0.531,1.045-0.761
							c0.385-0.26,0.847-0.442,1.318-0.651c0.243-0.086,0.499-0.154,0.757-0.227c0.256-0.084,0.523-0.139,0.801-0.161
							c0.275-0.031,0.553-0.074,0.833-0.091l0.85,0.039c0.571,0.006,1.116,0.203,1.654,0.331c0.525,0.173,1.004,0.438,1.47,0.662
							c0.429,0.286,0.821,0.591,1.184,0.876c0.352,0.298,0.615,0.653,0.877,0.948c0.267,0.291,0.48,0.58,0.626,0.869
							c0.164,0.273,0.287,0.525,0.39,0.727c0.203,0.406,0.292,0.65,0.292,0.65s-0.25-0.113-0.639-0.33
							c-0.193-0.11-0.43-0.236-0.678-0.397c-0.243-0.169-0.549-0.311-0.865-0.473c-0.323-0.152-0.643-0.353-0.999-0.51
							c-0.365-0.14-0.734-0.301-1.106-0.466c-0.397-0.096-0.784-0.241-1.183-0.342c-0.412-0.035-0.806-0.2-1.225-0.181l-0.619-0.051
							l-0.622,0.026c-0.416-0.016-0.822,0.098-1.23,0.122c-0.396,0.101-0.802,0.141-1.173,0.262
							c-0.38,0.092-0.742,0.198-1.079,0.306c-0.668,0.225-1.251,0.434-1.658,0.599C597.344,93.016,597.105,93.111,597.105,93.111z"
							/>
					</g>
					<g>
						<path style="fill:#FF6861;" d="M589.006,115.236c0,0,0.972,0.041,2.429,0.102c0.352,0.009,0.734,0.019,1.137,0.03
							c0.399,0.021,0.821-0.008,1.249,0.011c0.43,0.008,0.872-0.035,1.318-0.036c0.443-0.049,0.899-0.027,1.342-0.099
							c0.447-0.041,0.895-0.081,1.327-0.16c0.217-0.037,0.435-0.065,0.652-0.088c0.211-0.046,0.42-0.09,0.626-0.135
							c0.416-0.081,0.814-0.172,1.189-0.284c0.379-0.102,0.746-0.189,1.069-0.314c0.324-0.121,0.645-0.203,0.92-0.298
							c0.262-0.117,0.505-0.204,0.705-0.281c0.404-0.149,0.654-0.225,0.654-0.225s-0.14,0.205-0.42,0.547
							c-0.142,0.169-0.313,0.38-0.528,0.604c-0.221,0.214-0.491,0.434-0.794,0.668c-0.294,0.253-0.643,0.478-1.034,0.678
							c-0.382,0.224-0.795,0.447-1.255,0.592c-0.45,0.177-0.921,0.35-1.419,0.442c-0.491,0.136-1.002,0.189-1.511,0.246
							c-0.51,0.066-1.021,0.04-1.523,0.045c-0.5-0.023-0.991-0.083-1.459-0.15c-0.937-0.149-1.788-0.39-2.487-0.674
							C589.786,115.916,589.006,115.236,589.006,115.236z"/>
					</g>
					<g>
						<path style="fill:#000B1C;" d="M600.067,98.643c0,0,0.044,0.194,0.121,0.534c0.079,0.335,0.195,0.808,0.37,1.342
							c0.091,0.266,0.205,0.542,0.326,0.822c0.133,0.275,0.297,0.54,0.479,0.776c0.193,0.224,0.406,0.425,0.656,0.536
							c0.237,0.14,0.525,0.184,0.826,0.198l0.056,0.007l0.014,0.002l0.007,0.001c-0.127,0.006-0.032,0.002-0.06,0.003l0.005,0
							l0.036-0.003l0.146-0.011l0.291-0.022c0.174-0.025,0.233-0.077,0.364-0.097c0.232-0.133,0.486-0.245,0.664-0.481
							c0.387-0.429,0.633-1.027,0.803-1.555c0.163-0.534,0.266-1.01,0.334-1.347c0.065-0.342,0.103-0.538,0.103-0.538
							s0.076,0.188,0.156,0.533c0.077,0.345,0.166,0.848,0.144,1.471c-0.012,0.311-0.043,0.655-0.139,1.016
							c-0.101,0.358-0.223,0.755-0.492,1.116c-0.238,0.374-0.619,0.707-1.062,0.931c-0.236,0.086-0.539,0.191-0.747,0.222
							l-0.29,0.033l-0.145,0.017l-0.036,0.004l-0.073,0.004l-0.011-0.001l-0.023-0.001l-0.09-0.007
							c-0.473-0.033-0.973-0.141-1.394-0.403c-0.447-0.228-0.74-0.626-0.98-0.981c-0.233-0.367-0.359-0.752-0.453-1.108
							c-0.089-0.357-0.126-0.697-0.143-1.006C599.771,99.41,600.067,98.643,600.067,98.643z"/>
					</g>
					<g>
						<path style="fill:#000B1C;" d="M583.671,99.63c0,0,0.044,0.194,0.121,0.534c0.079,0.335,0.195,0.808,0.37,1.342
							c0.091,0.266,0.204,0.542,0.326,0.822c0.133,0.275,0.297,0.54,0.479,0.776c0.193,0.224,0.406,0.425,0.656,0.536
							c0.237,0.14,0.525,0.184,0.826,0.197l0.056,0.007l0.014,0.002l0.007,0.001c-0.127,0.006-0.032,0.002-0.06,0.003l0.004,0
							l0.036-0.003l0.146-0.011l0.291-0.022c0.174-0.025,0.233-0.076,0.364-0.097c0.232-0.133,0.486-0.245,0.664-0.481
							c0.387-0.429,0.633-1.027,0.803-1.555c0.163-0.534,0.266-1.01,0.334-1.347c0.065-0.342,0.103-0.538,0.103-0.538
							s0.075,0.188,0.156,0.533c0.077,0.345,0.166,0.848,0.144,1.471c-0.012,0.311-0.043,0.655-0.139,1.016
							c-0.101,0.358-0.223,0.755-0.492,1.116c-0.238,0.374-0.619,0.707-1.062,0.931c-0.236,0.086-0.539,0.191-0.747,0.222
							l-0.29,0.033l-0.145,0.017l-0.036,0.004l-0.073,0.004l-0.011-0.001l-0.023-0.001l-0.09-0.007
							c-0.473-0.033-0.973-0.141-1.394-0.403c-0.447-0.228-0.74-0.626-0.98-0.98c-0.233-0.368-0.359-0.752-0.453-1.108
							c-0.089-0.357-0.126-0.697-0.143-1.006C583.375,100.398,583.671,99.63,583.671,99.63z"/>
					</g>
				</g>
			</g>
			<g>
				<g>
					<g>
						<path style="fill:#FFB199;" d="M591.245,331.416c0,0,11.774,16.992,7.117,35.925c-4.656,18.933-9.767,63.196-9.767,63.196
							L574.2,454.56l-11.898,1.405l11.429-24.821c0,0-3.608-84.02-5.916-98.684C565.508,317.797,587.702,311.154,591.245,331.416z"
							/>
						<path style="fill:#001433;" d="M588.576,429.568c0,0,5.331,3.788,4.479,11.165c-0.852,7.378-2.635,17.938-2.635,17.938
							l-1.317,0.278l-1.911-12.736c0,0-5.748,12.438-8.281,13.695c-2.532,1.257-21.425,7.158-23.849,2.848
							c-2.424-4.309,8.394-9.992,8.394-9.992s5.416,5.059,10.59,0.235C579.221,448.176,588.576,429.568,588.576,429.568z"/>
					</g>
					<g>
						<path style="fill:#001433;" d="M652.799,430.138c0,0,8.726,22.442,8.048,28.345c-0.677,5.903-12.605,15.481-18.274,4.965
							l-1.431-12.119l1.265-11.268L652.799,430.138z"/>
						<path style="fill:#FFB199;" d="M629.962,347.414c0,0,15.853,16.937,16.572,37.089c0.719,20.152,8.849,57.15,8.849,57.15
							s1.387,7.43-1.178,8.829c-5.852,4.4-13.028,0.844-13.028,0.844l-1.832-15.224c0,0-21.881-61.413-33.131-82.109
							C594.964,333.296,618.226,317.249,629.962,347.414z"/>
					</g>
				</g>
				<g>
					<path style="fill:#22689E;" d="M570.95,196.907c0,0-21.477,31.286-24.231,64.279c-2.753,32.993,15.943,94.997,15.943,94.997
						s48.249,6.826,79.638-6.257c0,0,12.151-69.399,1.138-106.943c-11.014-37.544-23.477-44.939-23.477-44.939
						S589.673,199.751,570.95,196.907z"/>
					<path style="opacity:0.2;fill:#001433;" d="M643.438,242.983c-1.59-5.419-3.209-10.191-4.817-14.422
						c-0.403,9.09-1.987,18.137-4.719,26.833c-6.463,20.571-18.906,37.736-34.61,52.319c-12.366,11.483-26.646,20.687-42.651,26.095
						c3.251,13.183,6.021,22.374,6.021,22.374s48.249,6.826,79.638-6.257C642.3,349.926,654.452,280.527,643.438,242.983z"/>
				</g>
			</g>
			<g>
				<g>
					<g>
						<path style="fill:#FFB199;" d="M558.253,146.991c0,0-17.088,33.186-21.332,43.517c-0.213,0.519-57.169-71.248-33.704-32.424
							c0,0-7.679,0.427-4.693,9.813c2.986,9.386,33.704,49.49,41.383,49.916c7.679,0.427,37.117-56.742,37.117-56.742
							L558.253,146.991z"/>
						<path style="fill:#FF8F7D;" d="M544.809,186.051c2.309,5.512,5.192,11.144,8.972,15.949
							c10.814-16.79,23.245-40.931,23.245-40.931l-18.772-14.079c0,0-9.469,18.39-16.06,32.052
							C542.988,181.414,543.848,183.759,544.809,186.051z"/>
					</g>
					<g>
						<path style="fill:#FF8255;" d="M585.558,135.898c0,0-14.506-6.4-25.598,5.546c-11.092,11.946-14.079,21.758-14.079,21.758
							s5.546,8.106,23.038,9.813L585.558,135.898z"/>
						<path style="fill:#FF5948;" d="M566.947,152.581c-3.78-2.023-7.44-4.196-10.82-6.717
							c-7.967,9.854-10.246,17.339-10.246,17.339s5.546,8.106,23.038,9.813l7.164-15.981
							C572.983,155.656,569.931,154.178,566.947,152.581z"/>
					</g>
				</g>
				<g>
					<g>
						<path style="fill:#FF8255;" d="M570.95,196.907c0,0-15.683-12.799-12.696-29.011c2.987-16.212,8.106-29.011,11.093-31.144
							c2.986-2.133,16.212-0.853,16.212-0.853l8.106,18.345l23.892-19.625c0,0,9.813,0,17.065,4.266
							c7.253,4.266-2.015,39.819-14.66,59.16C619.961,198.045,593.885,205.013,570.95,196.907z"/>
						<path style="fill:#FF5948;" d="M631.337,153.01c-6.224,8.558-14.591,16.25-23.91,21.339
							c-12.258,6.693-28.17,8.316-41.85,9.537c-1.55,0.138-3.081,0.264-4.598,0.352c3.867,7.686,9.971,12.669,9.971,12.669
							c22.935,8.106,49.011,1.138,49.011,1.138c10.841-16.581,19.189-45.062,16.783-55.544
							C635.624,146.274,633.605,149.891,631.337,153.01z"/>
					</g>
					<g>
						<g>
							<path style="fill:#FFB199;" d="M626.088,160.217c0,0,29.864,23.891,37.544,31.144l-26.451,22.185
								c0,0-6.826-9.386-9.386-9.813c-2.56-0.427-24.318,1.28-1.706,2.56c0,0-32.424,11.519-1.28,4.693
								c0,0-24.318,17.919,3.413,1.706c0,0-12.799,23.891,2.133,2.986c0,0,7.253,9.813,10.239,8.533
								c2.987-1.28,49.916-23.038,49.49-31.997c-0.427-8.959-40.957-49.063-53.756-49.49
								C623.528,142.298,626.088,160.217,626.088,160.217z"/>
							<path style="fill:#FF8F7D;" d="M648.536,178.45c0.506-0.39,1.005-0.79,1.485-1.216c6.404-5.674,8.524-12.915,9.161-20.743
								c-9.14-7.723-17.996-13.605-22.855-13.767c-12.799-0.427-10.239,17.492-10.239,17.492S637.87,169.642,648.536,178.45z"/>
						</g>
						<path style="fill:#FF8255;" d="M655.526,149.551c0,0-17.065-13.652-26.878-12.799c-9.813,0.853-17.919,24.318,10.666,41.383
							C639.314,178.135,658.512,171.736,655.526,149.551z"/>
					</g>
				</g>
			</g>
			<path style="fill:#001433;" d="M595.894,64.674c0,0-5.742,19.139,13.78,23.35c19.522,4.211-8.804,40.575,8.804,50.145
				c17.608,9.57,13.78-2.297,26.795,4.976c0,0,15.311-13.397-0.766-28.709c-11.76-11.2,9.952-39.044-13.397-55.886
				C614.061,46.252,599.722,53.191,595.894,64.674z"/>
		</g>
	</g>
</g>
</svg>
